<svg xmlns="http://www.w3.org/2000/svg" viewBox="0 0 64 64" width="64" height="64" shape-rendering="crispEdges">
  <rect width="64" height="64" rx="13" fill="#ffffff"/>
  <rect x="6" y="47" width="6.6" height="6.6" fill="#2B5CFF"/>
  <rect x="14" y="47" width="6.6" height="6.6" fill="#2B5CFF"/><rect x="14" y="39" width="6.6" height="6.6" fill="#12B6D6"/>
  <rect x="22" y="47" width="6.6" height="6.6" fill="#2B5CFF"/><rect x="22" y="39" width="6.6" height="6.6" fill="#12B6D6"/><rect x="22" y="31" width="6.6" height="6.6" fill="#A6E22E"/>
  <rect x="30" y="47" width="6.6" height="6.6" fill="#2B5CFF"/><rect x="30" y="39" width="6.6" height="6.6" fill="#12B6D6"/><rect x="30" y="31" width="6.6" height="6.6" fill="#A6E22E"/><rect x="30" y="23" width="6.6" height="6.6" fill="#FFBC1F"/>
  <rect x="38" y="47" width="6.6" height="6.6" fill="#2B5CFF"/><rect x="38" y="39" width="6.6" height="6.6" fill="#12B6D6"/><rect x="38" y="31" width="6.6" height="6.6" fill="#A6E22E"/><rect x="38" y="23" width="6.6" height="6.6" fill="#FFBC1F"/><rect x="38" y="15" width="6.6" height="6.6" fill="#FF7A1A"/>
  <rect x="46" y="47" width="6.6" height="6.6" fill="#2B5CFF"/><rect x="46" y="39" width="6.6" height="6.6" fill="#12B6D6"/><rect x="46" y="31" width="6.6" height="6.6" fill="#A6E22E"/><rect x="46" y="23" width="6.6" height="6.6" fill="#FFBC1F"/><rect x="46" y="15" width="6.6" height="6.6" fill="#FF7A1A"/><rect x="46" y="7" width="6.6" height="6.6" fill="#FF2E3F"/>
  <rect x="54" y="5" width="6.6" height="6.6" fill="#FF2E3F"/>
</svg>
